<svg width="24.000000" height="24.000000" viewBox="0 0 24 24" fill="none" xmlns="http://www.w3.org/2000/svg" xmlns:xlink="http://www.w3.org/1999/xlink">
	<desc>
			Created with Pixso.
	</desc>
	<defs>
		<clipPath id="clip18_691">
			<rect id="material-symbols:check-box-outline" width="24.000000" height="24.000000" fill="white" fill-opacity="0"/>
		</clipPath>
	</defs>
	<rect id="material-symbols:check-box-outline" width="24.000000" height="24.000000" fill="#FFFFFF" fill-opacity="0"/>
	<g clip-path="url(#clip18_691)">
		<path id="Vector" d="M10.6 16.2L17.64 9.15L16.25 7.75L10.6 13.4L7.75 10.55L6.35 11.95L10.6 16.2ZM5 21C4.45 21 3.97 20.8 3.58 20.41C3.19 20.02 3 19.55 3 19L3 5C3 4.45 3.19 3.97 3.58 3.58C3.97 3.19 4.45 3 5 3L19 3C19.54 3 20.02 3.19 20.41 3.58C20.8 3.97 21 4.45 21 5L21 19C21 19.54 20.8 20.02 20.41 20.41C20.02 20.8 19.55 21 19 21L5 21ZM5 19L19 19L19 5L5 5L5 19Z" fill="#B91C23" fill-opacity="1.000000" fill-rule="nonzero"/>
	</g>
</svg>
