<svg width="40.000000" height="40.000000" viewBox="0 0 40 40" fill="none" xmlns="http://www.w3.org/2000/svg" xmlns:xlink="http://www.w3.org/1999/xlink">
	<desc>
			Created with Pixso.
	</desc>
	<defs>
		<clipPath id="clip4_455">
			<rect id="telegram-plane" width="22.000000" height="22.000000" transform="translate(7.000000 9.000000)" fill="white" fill-opacity="0"/>
		</clipPath>
		<clipPath id="clip4_454">
			<rect id="Frame 92" rx="20.000000" width="40.000000" height="40.000000" fill="white" fill-opacity="0"/>
		</clipPath>
	</defs>
	<rect id="Frame 92" rx="20.000000" width="40.000000" height="40.000000" fill="#B91C23" fill-opacity="1.000000"/>
	<g clip-path="url(#clip4_454)">
		<rect id="telegram-plane" width="22.000000" height="22.000000" transform="translate(7.000000 9.000000)" fill="#000000" fill-opacity="0"/>
		<g clip-path="url(#clip4_455)">
			<path id="Vector" d="M27.5684 13.2367L24.6636 26.9352C24.4448 27.902 23.873 28.1426 23.061 27.6871L18.6353 24.4258L16.4995 26.4797C16.2632 26.716 16.0659 26.9137 15.6104 26.9137L15.9282 22.4063L24.1309 14.9942C24.4878 14.6762 24.0537 14.5 23.5767 14.818L13.436 21.2032L9.07031 19.8367C8.12061 19.5403 8.10352 18.8871 9.26807 18.4317L26.3438 11.8531C27.1343 11.5567 27.8262 12.0293 27.5684 13.2367Z" fill="#FFFFFF" fill-opacity="1.000000" fill-rule="nonzero"/>
		</g>
	</g>
</svg>
