<svg width="40.000000" height="40.000000" viewBox="0 0 40 40" fill="none" xmlns="http://www.w3.org/2000/svg" xmlns:xlink="http://www.w3.org/1999/xlink">
	<desc>
			Created with Pixso.
	</desc>
	<defs>
		<clipPath id="clip4_457">
			<rect id="whatsapp" width="22.000000" height="22.000000" transform="translate(9.000000 9.000000)" fill="white" fill-opacity="0"/>
		</clipPath>
		<clipPath id="clip4_456">
			<rect id="Frame 94" rx="20.000000" width="40.000000" height="40.000000" fill="white" fill-opacity="0"/>
		</clipPath>
	</defs>
	<rect id="Frame 94" rx="20.000000" width="40.000000" height="40.000000" fill="#B91C23" fill-opacity="1.000000"/>
	<g clip-path="url(#clip4_456)">
		<rect id="whatsapp" width="22.000000" height="22.000000" transform="translate(9.000000 9.000000)" fill="#000000" fill-opacity="0"/>
		<g clip-path="url(#clip4_457)">
			<path id="Vector" d="M26.7417 13.1723C24.9414 11.3676 22.5439 10.375 19.9956 10.375C14.7363 10.375 10.4565 14.6547 10.4565 19.9141C10.4565 21.5941 10.895 23.2355 11.7285 24.6836L10.375 29.625L15.4326 28.2973C16.8247 29.0578 18.3931 29.4574 19.9912 29.4574L19.9956 29.4574C25.251 29.4574 29.625 25.1777 29.625 19.9184C29.625 17.3703 28.542 14.977 26.7417 13.1723ZM19.9956 27.8504C18.5693 27.8504 17.1729 27.468 15.9565 26.7461L15.6689 26.5742L12.6694 27.3605L13.4688 24.4344L13.2798 24.1336C12.4849 22.8703 12.0679 21.4137 12.0679 19.9141C12.0679 15.5441 15.626 11.9863 20 11.9863C22.1182 11.9863 24.1079 12.8113 25.603 14.3109C27.0986 15.8105 28.0181 17.8 28.0137 19.9184C28.0137 24.2926 24.3657 27.8504 19.9956 27.8504ZM24.3442 21.9121C24.1079 21.7918 22.9346 21.216 22.7158 21.1387C22.4966 21.057 22.3374 21.0184 22.1787 21.259C22.0195 21.4996 21.564 22.0324 21.4224 22.1957C21.2847 22.3547 21.1431 22.3762 20.9067 22.2559C19.5059 21.5555 18.5864 21.0055 17.6626 19.4199C17.4175 18.9988 17.9072 19.0289 18.3628 18.118C18.4404 17.959 18.4014 17.8215 18.3413 17.7012C18.2812 17.5809 17.8042 16.4078 17.6064 15.9308C17.4131 15.4668 17.2158 15.5312 17.0693 15.5226C16.9321 15.5141 16.7729 15.5141 16.6143 15.5141C16.4551 15.5141 16.1973 15.5742 15.978 15.8105C15.7588 16.0512 15.1445 16.627 15.1445 17.8C15.1445 18.9731 15.9995 20.1074 16.1157 20.2664C16.2358 20.4254 17.7959 22.8316 20.189 23.8672C21.7017 24.5203 22.2944 24.5762 23.0508 24.4644C23.5107 24.3957 24.46 23.8887 24.6577 23.3301C24.8555 22.7715 24.8555 22.2945 24.7954 22.1957C24.7393 22.0883 24.5806 22.0281 24.3442 21.9121Z" fill="#FFFFFF" fill-opacity="1.000000" fill-rule="nonzero"/>
		</g>
	</g>
</svg>
