<svg width="17.963867" height="17.963654" viewBox="0 0 17.9639 17.9637" fill="none" xmlns="http://www.w3.org/2000/svg" xmlns:xlink="http://www.w3.org/1999/xlink">
	<desc>
			Created with Pixso.
	</desc>
	<defs/>
	<path id="Vector" d="M16.2036 12.25L13.6636 11.96C13.3652 11.9249 13.0625 11.958 12.7783 12.0567C12.4941 12.1554 12.2363 12.3173 12.0234 12.53L10.1836 14.37C7.34473 12.9262 5.0376 10.6188 3.59375 7.78L5.44385 5.92999C5.87354 5.5 6.0835 4.89999 6.01367 4.29001L5.72363 1.76999C5.66699 1.28217 5.43311 0.832245 5.06592 0.505859C4.69873 0.179474 4.22461 -0.000579834 3.73389 0L2.00391 0C0.873535 0 -0.0664062 0.940002 0.00390625 2.07001C0.533691 10.61 7.36377 17.43 15.8936 17.96C17.0234 18.03 17.9639 17.09 17.9639 15.96L17.9639 14.23C17.9736 13.22 17.2139 12.37 16.2036 12.25Z" fill="#B91C23" fill-opacity="1.000000" fill-rule="nonzero"/>
</svg>
