<svg width="212.000000" height="66.000000" viewBox="0 0 212 66" fill="none" xmlns="http://www.w3.org/2000/svg" xmlns:xlink="http://www.w3.org/1999/xlink">
	<desc>
			Created with Pixso.
	</desc>
	<defs>
		<clipPath id="clip62_1067">
			<rect id="logo 3" width="212.000000" height="66.000000" fill="white" fill-opacity="0"/>
		</clipPath>
		<linearGradient id="paint_linear_62_1085_0" x1="86.907227" y1="9.166485" x2="88.269943" y2="19.055738" gradientUnits="userSpaceOnUse">
			<stop stop-color="#D9D9D9" stop-opacity="0.000000"/>
			<stop offset="1.000000" stop-color="#FFFFFF"/>
		</linearGradient>
	</defs>
	<rect id="logo 3" width="212.000000" height="66.000000" fill="#FFFFFF" fill-opacity="0"/>
	<g clip-path="url(#clip62_1067)">
		<mask id="mask62_1069" mask-type="alpha" maskUnits="userSpaceOnUse" x="0.000000" y="-2.640137" width="212.000000" height="68.213867">
			<path id="Vector" d="M0 -2.65L212 -2.65L212 65.57L0 65.57L0 -2.65Z" fill="#000000" fill-opacity="1.000000" fill-rule="evenodd"/>
		</mask>
		<g mask="url(#mask62_1069)">
			<mask id="mask62_1073" mask-type="alpha" maskUnits="userSpaceOnUse" x="0.000000" y="-2.640137" width="212.000000" height="68.213867">
				<path id="Vector" d="M212 -2.65L0 -2.65L0 65.57L212 65.57L212 -2.65Z" fill="#FFFFFF" fill-opacity="1.000000" fill-rule="nonzero"/>
			</mask>
			<g mask="url(#mask62_1073)">
				<path id="Vector" d="M75.17 3.41C87.25 2.71 98.95 4.4 110.24 8.47C110.33 8.63 110.48 8.74 110.69 8.8C110.32 8.91 109.95 8.94 109.57 8.91C107.36 8.37 105.12 7.93 102.87 7.59C101.68 7.11 100.41 6.89 99.07 6.93C98.42 6.99 97.83 6.92 97.28 6.71C94.51 6.17 91.68 5.95 88.79 6.05C73.53 5.39 59.16 8.5 45.68 15.4C39.33 17.92 32.77 19.82 26.02 21.12C21.13 21.94 16.29 22.64 11.5 23.21C11.46 24.39 11.5 25.56 11.61 26.73C11.66 27.14 11.77 27.51 11.95 27.83C13.66 29.08 14.63 30.77 14.85 32.89C15.95 32.93 17 32.27 17.98 31.79C18.85 31.85 19.6 32.62 20.21 33.22C22.74 33.33 25.27 33.37 27.81 33.33C29.86 26.43 34.48 22.22 41.66 20.68C49.62 19.6 56.02 22.17 60.87 28.38C68.35 33.33 76.54 32.18 84.55 33.33C85.54 33.66 86.58 33.8 87.68 33.77C89.16 33.97 90.65 34.11 92.14 34.21C92.62 34.39 93.14 34.5 93.71 34.54C104.88 34.65 116.05 34.69 127.22 34.65C137.5 34.83 147.78 35.2 158.05 35.75C156 35.97 153.92 36.04 151.79 35.97C128.89 35.24 106 35.16 83.1 35.75C75.76 35.8 68.42 35.62 61.09 35.2C59.78 29.21 56.21 25.11 50.37 22.88C40.48 20.45 33.59 23.86 29.71 33.11C29.52 33.84 29.41 34.57 29.37 35.31C26.1 35.18 22.82 35.07 19.54 34.98C19.08 34.61 18.56 33.69 17.98 33.55C16.53 34.04 15.04 34.77 13.51 34.43C12.93 33.24 12.52 31.99 12.28 30.69C11.3 30.09 10.56 29.29 10.05 28.27C9.62 25.74 9.51 23.21 9.71 20.68C10.91 20.07 12.17 19.63 13.51 19.36C17.91 18.89 22.31 18.38 26.69 17.82C38.08 12.42 49.92 8.23 62.21 5.28C65.38 4.56 68.58 4.08 71.82 3.85C72.98 3.86 74.1 3.71 75.17 3.41Z" fill="#FFFFFF" fill-opacity="1.000000" fill-rule="evenodd"/>
				<path id="Vector" d="M75.17 3.41C74.1 3.71 72.98 3.86 71.82 3.85C72.88 3.51 73.99 3.36 75.17 3.41Z" fill="#FFFFFF" fill-opacity="1.000000" fill-rule="evenodd"/>
				<path id="Vector" d="M88.79 6.05C91.68 5.95 94.51 6.17 97.28 6.71C94.41 6.56 91.59 6.34 88.79 6.05Z" fill="#FFFFFF" fill-opacity="1.000000" fill-rule="evenodd"/>
				<path id="Vector" d="M99.07 6.93C100.41 6.89 101.68 7.11 102.87 7.59C101.55 7.47 100.29 7.25 99.07 6.93Z" fill="#FFFFFF" fill-opacity="1.000000" fill-rule="evenodd"/>
				<path id="Vector" d="M110.24 8.47C119.53 11.69 128.47 15.68 137.05 20.46C138.09 20.82 139.13 21.19 140.17 21.56C149.23 22.32 158.24 23.42 167.2 24.86C171.73 25.83 176.2 27 180.61 28.38C182.4 29.11 184.11 29.96 185.75 30.91C185.45 30.91 185.15 30.91 184.85 30.91C179.36 28.92 173.85 28.88 168.32 30.8C166.89 31.52 165.55 32.36 164.3 33.33C164.15 33.33 164 33.33 163.85 33.33C164.34 32.67 164.93 32.12 165.64 31.68C168.67 29.71 172.02 28.61 175.69 28.38C169.6 26.7 163.42 25.38 157.15 24.42C150.52 23.72 143.89 22.99 137.27 22.22C132.86 19.56 128.39 17 123.87 14.52C119.23 12.23 114.47 10.36 109.57 8.91C109.95 8.94 110.32 8.91 110.69 8.8C110.48 8.74 110.33 8.63 110.24 8.47Z" fill="#FFFFFF" fill-opacity="1.000000" fill-rule="evenodd"/>
				<path id="Vector" d="M84.55 33.33C85.65 33.3 86.69 33.45 87.68 33.77C86.58 33.8 85.54 33.66 84.55 33.33Z" fill="#FFFFFF" fill-opacity="1.000000" fill-rule="evenodd"/>
				<path id="Vector" d="M92.14 34.21C103.87 34.35 115.56 34.5 127.22 34.65C116.05 34.69 104.88 34.65 93.71 34.54C93.14 34.5 92.62 34.39 92.14 34.21Z" fill="#FFFFFF" fill-opacity="1.000000" fill-rule="evenodd"/>
				<path id="Vector" d="M163.86 33.33C164 33.33 164.15 33.33 164.3 33.33C163.23 34.15 162.34 35.14 161.62 36.3C158.31 36.31 155.03 36.2 151.79 35.97C153.92 36.05 156 35.97 158.05 35.75C159.16 35.91 160.28 35.95 161.4 35.86C162.12 34.9 162.94 34.05 163.86 33.33Z" fill="#FFFFFF" fill-opacity="1.000000" fill-rule="evenodd"/>
				<path id="Vector" d="M184.85 30.91C185.15 30.91 185.45 30.91 185.75 30.91C188.94 32.37 191.18 34.65 192.45 37.74C190.62 34.69 188.09 32.41 184.85 30.91Z" fill="#FFFFFF" fill-opacity="1.000000" fill-rule="evenodd"/>
				<path id="Vector" d="M68.61 12.44C74.05 10.03 79.92 8.71 85.89 8.57L95.94 8.34L107.91 10.84C112.09 11.71 116.13 13.18 119.9 15.18L133.52 22.44L58.42 16.96L68.61 12.44Z" fill="url(#paint_linear_62_1085_0)" fill-opacity="1.000000" fill-rule="nonzero"/>
				<path id="Vector" d="M6.77 58.75L4.09 58.75L11.84 37.94L14.48 37.94L22.24 58.75L19.56 58.75L13.25 41.23L13.08 41.23L6.77 58.75ZM7.76 50.62L18.57 50.62L18.57 52.86L7.76 52.86L7.76 50.62ZM35.18 52.37L35.18 43.14L37.62 43.14L37.62 58.75L35.18 58.75L35.18 56.11L35.02 56.11C34.64 56.9 34.07 57.57 33.28 58.13C32.5 58.68 31.51 58.95 30.31 58.95C29.32 58.95 28.44 58.74 27.67 58.31C26.9 57.88 26.3 57.23 25.86 56.36C25.42 55.49 25.2 54.39 25.2 53.06L25.2 43.14L27.63 43.14L27.63 52.9C27.63 54.03 27.96 54.94 28.6 55.62C29.25 56.3 30.09 56.63 31.1 56.63C31.7 56.63 32.32 56.48 32.94 56.18C33.58 55.87 34.11 55.41 34.53 54.78C34.96 54.15 35.18 53.34 35.18 52.37ZM48.96 43.14L48.96 45.18L40.75 45.18L40.75 43.14L48.96 43.14ZM43.15 39.41L45.58 39.41L45.58 54.28C45.58 54.95 45.68 55.46 45.88 55.8C46.08 56.13 46.35 56.36 46.66 56.47C46.99 56.58 47.33 56.63 47.68 56.63C47.95 56.63 48.17 56.62 48.34 56.59C48.52 56.56 48.65 56.53 48.76 56.51L49.25 58.67C49.09 58.73 48.85 58.79 48.56 58.85C48.26 58.92 47.89 58.95 47.44 58.95C46.75 58.95 46.07 58.81 45.41 58.51C44.76 58.22 44.22 57.78 43.78 57.18C43.36 56.59 43.15 55.84 43.15 54.93L43.15 39.41ZM58.89 59.07C57.46 59.07 56.2 58.74 55.12 58.07C54.05 57.4 53.21 56.46 52.61 55.25C52.01 54.05 51.71 52.64 51.71 51.03C51.71 49.4 52.01 47.98 52.61 46.77C53.21 45.56 54.05 44.62 55.12 43.95C56.2 43.28 57.46 42.94 58.89 42.94C60.32 42.94 61.57 43.28 62.64 43.95C63.72 44.62 64.56 45.56 65.16 46.77C65.76 47.98 66.07 49.4 66.07 51.03C66.07 52.64 65.76 54.05 65.16 55.25C64.56 56.46 63.72 57.4 62.64 58.07C61.57 58.74 60.32 59.07 58.89 59.07ZM58.89 56.92C59.97 56.92 60.87 56.64 61.57 56.1C62.27 55.55 62.79 54.83 63.13 53.93C63.46 53.04 63.63 52.07 63.63 51.03C63.63 49.98 63.46 49.01 63.13 48.11C62.79 47.21 62.27 46.48 61.57 45.93C60.87 45.37 59.97 45.09 58.89 45.09C57.8 45.09 56.91 45.37 56.21 45.93C55.51 46.48 54.99 47.21 54.65 48.11C54.31 49.01 54.14 49.98 54.14 51.03C54.14 52.07 54.31 53.04 54.65 53.93C54.99 54.83 55.51 55.55 56.21 56.1C56.91 56.64 57.8 56.92 58.89 56.92ZM75.76 59.07C74.44 59.07 73.28 58.74 72.27 58.09C71.26 57.42 70.46 56.49 69.89 55.28C69.32 54.07 69.04 52.64 69.04 50.99C69.04 49.35 69.32 47.93 69.89 46.72C70.46 45.51 71.26 44.58 72.28 43.93C73.29 43.27 74.47 42.94 75.8 42.94C76.83 42.94 77.65 43.11 78.25 43.45C78.85 43.78 79.31 44.16 79.63 44.59C79.95 45.01 80.2 45.35 80.38 45.62L80.59 45.62L80.59 37.94L83.02 37.94L83.02 58.75L80.67 58.75L80.67 56.35L80.38 56.35C80.2 56.63 79.95 56.99 79.62 57.43C79.29 57.85 78.82 58.24 78.21 58.57C77.59 58.91 76.78 59.07 75.76 59.07ZM76.09 56.92C77.07 56.92 77.89 56.67 78.57 56.17C79.24 55.66 79.75 54.96 80.1 54.06C80.45 53.16 80.63 52.12 80.63 50.95C80.63 49.78 80.46 48.76 80.11 47.89C79.77 47.01 79.26 46.32 78.59 45.84C77.91 45.34 77.08 45.09 76.09 45.09C75.06 45.09 74.2 45.35 73.51 45.88C72.83 46.39 72.32 47.09 71.98 47.98C71.64 48.86 71.47 49.85 71.47 50.95C71.47 52.06 71.64 53.07 71.99 53.97C72.34 54.87 72.85 55.59 73.53 56.13C74.22 56.65 75.07 56.92 76.09 56.92ZM87.82 58.75L87.82 43.14L90.25 43.14L90.25 58.75L87.82 58.75ZM89.06 40.54C88.58 40.54 88.17 40.38 87.83 40.07C87.49 39.75 87.32 39.37 87.32 38.92C87.32 38.47 87.49 38.09 87.83 37.77C88.17 37.45 88.58 37.29 89.06 37.29C89.53 37.29 89.94 37.45 90.27 37.77C90.62 38.09 90.79 38.47 90.79 38.92C90.79 39.37 90.62 39.75 90.27 40.07C89.94 40.38 89.53 40.54 89.06 40.54ZM99.37 59.11C98.37 59.11 97.46 58.93 96.64 58.55C95.82 58.17 95.17 57.63 94.69 56.92C94.21 56.2 93.97 55.33 93.97 54.32C93.97 53.42 94.15 52.7 94.5 52.14C94.86 51.58 95.34 51.14 95.94 50.82C96.54 50.51 97.2 50.27 97.92 50.11C98.65 49.95 99.38 49.82 100.11 49.73C101.08 49.6 101.86 49.51 102.46 49.45C103.06 49.38 103.5 49.27 103.78 49.12C104.06 48.96 104.2 48.69 104.2 48.3L104.2 48.22C104.2 47.22 103.92 46.44 103.36 45.89C102.81 45.33 101.98 45.05 100.86 45.05C99.69 45.05 98.78 45.3 98.12 45.81C97.46 46.31 97 46.84 96.73 47.41L94.42 46.6C94.83 45.65 95.38 44.91 96.07 44.38C96.77 43.85 97.52 43.48 98.34 43.27C99.16 43.05 99.98 42.94 100.77 42.94C101.28 42.94 101.87 43 102.53 43.12C103.19 43.24 103.84 43.48 104.46 43.85C105.08 44.21 105.6 44.76 106.01 45.5C106.43 46.24 106.63 47.23 106.63 48.47L106.63 58.75L104.2 58.75L104.2 56.63L104.07 56.63C103.91 56.97 103.63 57.34 103.25 57.72C102.86 58.11 102.35 58.44 101.71 58.71C101.07 58.98 100.29 59.11 99.37 59.11ZM99.74 56.96C100.71 56.96 101.52 56.77 102.18 56.4C102.84 56.03 103.35 55.55 103.68 54.96C104.03 54.37 104.2 53.75 104.2 53.1L104.2 50.91C104.1 51.03 103.87 51.14 103.52 51.24C103.17 51.33 102.77 51.42 102.32 51.49C101.87 51.56 101.44 51.62 101.01 51.68C100.59 51.72 100.25 51.77 99.99 51.8C99.36 51.88 98.77 52.01 98.22 52.2C97.67 52.37 97.23 52.64 96.9 53C96.57 53.35 96.4 53.83 96.4 54.44C96.4 55.27 96.71 55.9 97.34 56.33C97.97 56.75 98.77 56.96 99.74 56.96ZM117.47 64.92C116.29 64.92 115.28 64.77 114.44 64.48C113.59 64.19 112.89 63.8 112.32 63.32C111.77 62.84 111.32 62.34 110.99 61.79L112.93 60.45C113.15 60.74 113.43 61.06 113.77 61.43C114.1 61.8 114.56 62.12 115.15 62.39C115.74 62.67 116.51 62.81 117.47 62.81C118.75 62.81 119.8 62.51 120.63 61.9C121.47 61.29 121.88 60.33 121.88 59.03L121.88 55.86L121.68 55.86C121.5 56.15 121.24 56.5 120.91 56.92C120.59 57.33 120.12 57.7 119.51 58.03C118.91 58.34 118.09 58.5 117.06 58.5C115.78 58.5 114.63 58.21 113.61 57.61C112.6 57.01 111.8 56.15 111.21 55.01C110.62 53.87 110.33 52.49 110.33 50.86C110.33 49.27 110.62 47.87 111.19 46.69C111.76 45.5 112.55 44.58 113.57 43.93C114.59 43.27 115.76 42.94 117.1 42.94C118.13 42.94 118.95 43.11 119.55 43.45C120.16 43.78 120.63 44.16 120.95 44.59C121.28 45.01 121.54 45.35 121.72 45.62L121.96 45.62L121.96 43.14L124.32 43.14L124.32 59.19C124.32 60.54 124.01 61.63 123.39 62.47C122.78 63.31 121.95 63.93 120.91 64.32C119.88 64.72 118.73 64.92 117.47 64.92ZM117.39 56.35C118.36 56.35 119.19 56.13 119.86 55.69C120.53 55.25 121.05 54.62 121.4 53.79C121.75 52.96 121.92 51.98 121.92 50.82C121.92 49.7 121.75 48.71 121.41 47.85C121.06 46.99 120.56 46.31 119.88 45.83C119.21 45.34 118.38 45.09 117.39 45.09C116.35 45.09 115.5 45.35 114.81 45.87C114.13 46.38 113.61 47.07 113.27 47.94C112.93 48.81 112.77 49.77 112.77 50.82C112.77 51.91 112.94 52.87 113.28 53.7C113.63 54.52 114.15 55.17 114.83 55.65C115.52 56.12 116.37 56.35 117.39 56.35ZM131.2 49.36L131.2 58.75L128.77 58.75L128.77 43.14L131.12 43.14L131.12 45.58L131.33 45.58C131.7 44.79 132.26 44.15 133.02 43.67C133.78 43.18 134.75 42.94 135.95 42.94C137.02 42.94 137.96 43.16 138.76 43.59C139.57 44.02 140.19 44.67 140.64 45.54C141.09 46.41 141.31 47.51 141.31 48.83L141.31 58.75L138.88 58.75L138.88 49C138.88 47.77 138.56 46.81 137.91 46.13C137.26 45.44 136.38 45.09 135.25 45.09C134.47 45.09 133.78 45.26 133.16 45.59C132.56 45.92 132.08 46.41 131.73 47.04C131.38 47.68 131.2 48.45 131.2 49.36ZM152.19 59.07C150.76 59.07 149.51 58.74 148.43 58.07C147.36 57.4 146.52 56.46 145.91 55.25C145.32 54.05 145.02 52.64 145.02 51.03C145.02 49.4 145.32 47.98 145.91 46.77C146.52 45.56 147.36 44.62 148.43 43.95C149.51 43.28 150.76 42.94 152.19 42.94C153.62 42.94 154.88 43.28 155.95 43.95C157.03 44.62 157.87 45.56 158.46 46.77C159.07 47.98 159.37 49.4 159.37 51.03C159.37 52.64 159.07 54.05 158.46 55.25C157.87 56.46 157.03 57.4 155.95 58.07C154.88 58.74 153.62 59.07 152.19 59.07ZM152.19 56.92C153.28 56.92 154.17 56.64 154.88 56.1C155.58 55.55 156.1 54.83 156.43 53.93C156.77 53.04 156.94 52.07 156.94 51.03C156.94 49.98 156.77 49.01 156.43 48.11C156.1 47.21 155.58 46.48 154.88 45.93C154.17 45.37 153.28 45.09 152.19 45.09C151.11 45.09 150.21 45.37 149.51 45.93C148.81 46.48 148.29 47.21 147.96 48.11C147.62 49.01 147.45 49.98 147.45 51.03C147.45 52.07 147.62 53.04 147.96 53.93C148.29 54.83 148.81 55.55 149.51 56.1C150.21 56.64 151.11 56.92 152.19 56.92ZM162.63 58.75L162.63 56.92L171.63 45.54L171.63 45.38L162.92 45.38L162.92 43.14L174.76 43.14L174.76 45.05L166.02 56.35L166.02 56.51L175.05 56.51L175.05 58.75L162.63 58.75ZM185.36 59.03C184.15 59.03 183.06 58.79 182.09 58.32C181.12 57.85 180.34 57.2 179.76 56.37C179.17 55.54 178.85 54.6 178.8 53.55L181.27 53.55C181.37 54.49 181.8 55.27 182.57 55.88C183.35 56.49 184.28 56.8 185.36 56.8C186.22 56.8 186.99 56.6 187.67 56.2C188.35 55.8 188.88 55.25 189.27 54.55C189.66 53.85 189.85 53.05 189.85 52.16C189.85 51.26 189.65 50.45 189.25 49.74C188.85 49.02 188.3 48.45 187.6 48.04C186.89 47.63 186.09 47.42 185.19 47.41C184.55 47.4 183.88 47.5 183.2 47.71C182.52 47.9 181.96 48.16 181.52 48.47L179.13 48.18L180.41 37.94L191.38 37.94L191.38 40.18L182.55 40.18L181.81 46.31L181.93 46.31C182.37 45.98 182.91 45.69 183.56 45.47C184.22 45.25 184.9 45.14 185.61 45.14C186.9 45.14 188.05 45.44 189.06 46.05C190.08 46.65 190.88 47.48 191.45 48.53C192.04 49.58 192.33 50.78 192.33 52.12C192.33 53.45 192.03 54.64 191.42 55.68C190.82 56.72 190 57.54 188.95 58.14C187.89 58.73 186.7 59.03 185.36 59.03ZM196.43 58.75L196.43 56.92L203.4 49.4C204.22 48.52 204.89 47.76 205.42 47.11C205.95 46.45 206.34 45.83 206.6 45.26C206.86 44.67 206.99 44.07 206.99 43.43C206.99 42.7 206.81 42.06 206.45 41.53C206.1 40.99 205.62 40.58 205.01 40.29C204.39 40 203.71 39.85 202.94 39.85C202.13 39.85 201.42 40.02 200.82 40.35C200.22 40.68 199.76 41.13 199.43 41.72C199.1 42.31 198.94 43 198.94 43.79L196.51 43.79C196.51 42.58 196.79 41.51 197.36 40.58C197.93 39.66 198.71 38.95 199.7 38.43C200.69 37.92 201.8 37.66 203.03 37.66C204.26 37.66 205.36 37.92 206.32 38.43C207.27 38.95 208.02 39.64 208.57 40.51C209.11 41.39 209.38 42.36 209.38 43.43C209.38 44.19 209.24 44.94 208.96 45.67C208.68 46.4 208.2 47.21 207.51 48.1C206.83 48.99 205.89 50.07 204.68 51.35L199.93 56.35L199.93 56.51L209.75 56.51L209.75 58.75L196.43 58.75Z" fill="#FFFFFF" fill-opacity="1.000000" fill-rule="nonzero"/>
			</g>
		</g>
	</g>
</svg>
