<svg width="110.000000" height="34.375000" viewBox="0 0 110 34.375" fill="none" xmlns="http://www.w3.org/2000/svg" xmlns:xlink="http://www.w3.org/1999/xlink">
	<desc>
			Created with Pixso.
	</desc>
	<defs>
		<clipPath id="clip4_433">
			<rect id="logo 3" width="110.000000" height="34.375000" fill="white" fill-opacity="0"/>
		</clipPath>
		<linearGradient id="paint_linear_4_451_0" x1="45.091644" y1="4.774599" x2="45.798721" y2="9.925248" gradientUnits="userSpaceOnUse">
			<stop stop-color="#D9D9D9" stop-opacity="0.000000"/>
			<stop offset="1.000000" stop-color="#FFFFFF"/>
		</linearGradient>
	</defs>
	<rect id="logo 3" width="110.000000" height="34.375000" fill="#FFFFFF" fill-opacity="0"/>
	<g clip-path="url(#clip4_433)">
		<mask id="mask4_435" mask-type="alpha" maskUnits="userSpaceOnUse" x="0.000000" y="-1.375000" width="110.000000" height="35.527954">
			<path id="Vector" d="M0 -1.375L110 -1.375L110 34.153L0 34.153L0 -1.375Z" fill="#000000" fill-opacity="1.000000" fill-rule="evenodd"/>
		</mask>
		<g mask="url(#mask4_435)">
			<mask id="mask4_439" mask-type="alpha" maskUnits="userSpaceOnUse" x="0.000000" y="-1.375000" width="110.000000" height="35.527954">
				<path id="Vector" d="M110 -1.375L0 -1.375L0 34.153L110 34.153L110 -1.375Z" fill="#FFFFFF" fill-opacity="1.000000" fill-rule="nonzero"/>
			</mask>
			<g mask="url(#mask4_439)">
				<path id="Vector" d="M39.0034 1.7767C45.2754 1.41409 51.3413 2.29279 57.2012 4.41266C57.25 4.49539 57.3271 4.5527 57.4331 4.58456C57.2437 4.64117 57.0503 4.66022 56.8535 4.64188C55.7056 4.36349 54.5464 4.13428 53.3765 3.95422C52.7583 3.70587 52.1016 3.59128 51.4058 3.61041C51.0713 3.64548 50.7622 3.60733 50.4785 3.49582C49.0405 3.21478 47.5723 3.10019 46.0737 3.15198C38.1553 2.80829 30.6982 4.43192 23.7031 8.02274C20.4072 9.33441 17.0068 10.3278 13.5024 11.0025C10.9663 11.4307 8.45508 11.7936 5.96826 12.0913C5.94922 12.7038 5.96875 13.3149 6.02637 13.925C6.04932 14.1407 6.10742 14.3316 6.2002 14.498C7.09131 15.151 7.59326 16.0297 7.70703 17.134C8.2793 17.1562 8.82031 16.8123 9.33008 16.5609C9.78467 16.5896 10.1714 16.9907 10.4893 17.3058C11.8022 17.3632 13.1157 17.3823 14.4302 17.3632C15.4956 13.7699 17.8911 11.5733 21.6167 10.7733C25.748 10.2107 29.0713 11.5478 31.585 14.7845C35.4678 17.3632 39.7183 16.7616 43.8716 17.3632C44.3838 17.5319 44.9248 17.6082 45.4941 17.5924C46.2622 17.6939 47.0352 17.7703 47.8125 17.8216C48.0596 17.9149 48.3301 17.9722 48.624 17.9935C54.4194 18.0508 60.2148 18.07 66.0107 18.0508C71.3467 18.1443 76.6787 18.3353 82.0063 18.6239C80.9453 18.7378 79.8638 18.7759 78.7607 18.7385C66.8809 18.3548 55 18.3165 43.1182 18.6239C39.3091 18.6476 35.5034 18.5521 31.7007 18.3373C31.0195 15.2178 29.165 13.0785 26.1372 11.9194C21.0059 10.6542 17.4321 12.4306 15.415 17.2486C15.3193 17.6259 15.2617 18.0079 15.2412 18.3947C13.542 18.3278 11.8418 18.2705 10.1411 18.2227C9.90234 18.0284 9.63184 17.5508 9.33008 17.4778C8.5791 17.7303 7.80664 18.1123 7.01172 17.9362C6.70947 17.3145 6.49707 16.6651 6.37402 15.9879C5.86621 15.6765 5.47949 15.2562 5.21484 14.7272C4.99609 13.407 4.93799 12.089 5.04102 10.7733C5.66113 10.4571 6.31787 10.2279 7.01172 10.0857C9.29639 9.84192 11.5757 9.57449 13.8506 9.28345C19.7627 6.46893 25.9058 4.29141 32.2803 2.75085C33.9238 2.3761 35.5854 2.12787 37.2646 2.00592C37.8711 2.01233 38.4507 1.93591 39.0034 1.7767Z" fill="#FFFFFF" fill-opacity="1.000000" fill-rule="evenodd"/>
				<path id="Vector" d="M39.0029 1.7771C38.4502 1.93628 37.8706 2.01273 37.2642 2.00632C37.8149 1.83084 38.3945 1.75439 39.0029 1.7771Z" fill="#FFFFFF" fill-opacity="1.000000" fill-rule="evenodd"/>
				<path id="Vector" d="M46.0752 3.15311C47.5737 3.10132 49.042 3.21591 50.48 3.49692C48.9912 3.42197 47.5229 3.30737 46.0752 3.15311Z" fill="#FFFFFF" fill-opacity="1.000000" fill-rule="evenodd"/>
				<path id="Vector" d="M51.4062 3.60999C52.1021 3.59085 52.7588 3.70544 53.377 3.9538C52.6958 3.8909 52.0391 3.77628 51.4062 3.60999Z" fill="#FFFFFF" fill-opacity="1.000000" fill-rule="evenodd"/>
				<path id="Vector" d="M57.2026 4.41147C62.0244 6.08826 66.6606 8.1702 71.1123 10.6575C71.6519 10.8478 72.1929 11.0388 72.7349 11.2305C77.4321 11.6249 82.1074 12.198 86.7603 12.9496C89.1074 13.4535 91.4258 14.0646 93.7148 14.7833C94.6431 15.1656 95.5312 15.6051 96.3809 16.1013C96.2261 16.1013 96.0718 16.1013 95.9175 16.1013C93.0688 15.0641 90.2095 15.045 87.3394 16.044C86.5952 16.4185 85.8999 16.8578 85.2534 17.3619C85.1758 17.3619 85.0991 17.3619 85.0215 17.3619C85.2725 17.0182 85.5815 16.7317 85.9492 16.5024C87.5225 15.4745 89.2607 14.9015 91.165 14.7833C88.0015 13.9057 84.7949 13.218 81.5444 12.7204C78.1016 12.3559 74.6626 11.9738 71.228 11.5744C68.9399 10.1915 66.6216 8.85452 64.2734 7.56314C61.8701 6.37103 59.3975 5.39685 56.855 4.64069C57.0518 4.65903 57.2451 4.63998 57.4346 4.58337C57.3286 4.55151 57.251 4.4942 57.2026 4.41147Z" fill="#FFFFFF" fill-opacity="1.000000" fill-rule="evenodd"/>
				<path id="Vector" d="M43.8711 17.3629C44.4409 17.347 44.9814 17.4233 45.4937 17.592C44.9243 17.6078 44.3833 17.5316 43.8711 17.3629Z" fill="#FFFFFF" fill-opacity="1.000000" fill-rule="evenodd"/>
				<path id="Vector" d="M47.8125 17.822C53.897 17.8932 59.9629 17.9696 66.0107 18.0512C60.2148 18.0704 54.4194 18.0512 48.624 17.9939C48.3301 17.9726 48.0596 17.9153 47.8125 17.822Z" fill="#FFFFFF" fill-opacity="1.000000" fill-rule="evenodd"/>
				<path id="Vector" d="M85.0215 17.3637C85.0986 17.3637 85.1758 17.3637 85.2529 17.3637C84.6968 17.7909 84.2339 18.3067 83.8618 18.9109C82.1431 18.9167 80.4434 18.8594 78.7617 18.739C79.8652 18.7764 80.9468 18.7383 82.0078 18.6243C82.5859 18.7071 83.165 18.7261 83.7461 18.6816C84.1196 18.1788 84.5444 17.7393 85.0215 17.3637Z" fill="#FFFFFF" fill-opacity="1.000000" fill-rule="evenodd"/>
				<path id="Vector" d="M95.9165 16.1033C96.0708 16.1033 96.2251 16.1033 96.3799 16.1033C98.0386 16.8637 99.1982 18.0479 99.8574 19.6561C98.9092 18.0691 97.5957 16.8848 95.9165 16.1033Z" fill="#FFFFFF" fill-opacity="1.000000" fill-rule="evenodd"/>
				<path id="Vector" d="M35.5986 6.48367C38.4214 5.22668 41.4707 4.54147 44.5659 4.46854L49.7808 4.34558L55.9907 5.64783C58.1631 6.10339 60.2578 6.86514 62.2109 7.90979L69.2788 11.6902L30.3115 8.83801L35.5986 6.48367Z" fill="url(#paint_linear_4_451_0)" fill-opacity="1.000000" fill-rule="nonzero"/>
				<path id="Vector" d="M3.51367 30.6003L2.12256 30.6003L6.14648 19.7649L7.5166 19.7649L11.5405 30.6003L10.1489 30.6003L6.87451 21.479L6.78857 21.479L3.51367 30.6003ZM4.02734 26.3676L9.63525 26.3676L9.63525 27.5316L4.02734 27.5316L4.02734 26.3676ZM18.2559 27.2777L18.2559 22.4737L19.519 22.4737L19.519 30.6003L18.2559 30.6003L18.2559 29.2246L18.1704 29.2246C17.9775 29.6374 17.6782 29.9883 17.2715 30.2776C16.8647 30.5633 16.3511 30.7061 15.7305 30.7061C15.2163 30.7061 14.7598 30.595 14.3604 30.3728C13.9609 30.147 13.647 29.8085 13.4185 29.3569C13.1904 28.9019 13.0762 28.3288 13.0762 27.6375L13.0762 22.4737L14.3389 22.4737L14.3389 27.5528C14.3389 28.1454 14.5068 28.6181 14.8418 28.9707C15.1807 29.3235 15.6123 29.4998 16.1367 29.4998C16.4507 29.4998 16.77 29.4204 17.0947 29.2617C17.4229 29.103 17.6978 28.8597 17.9189 28.5316C18.1436 28.2036 18.2559 27.7856 18.2559 27.2777ZM25.4062 22.4737L25.4062 23.5318L21.147 23.5318L21.147 22.4737L25.4062 22.4737ZM22.3882 20.5266L23.6509 20.5266L23.6509 28.2724C23.6509 28.6251 23.7026 28.8896 23.8062 29.0659C23.9131 29.2388 24.0488 29.3552 24.2129 29.4151C24.3804 29.4716 24.5571 29.4998 24.7427 29.4998C24.8818 29.4998 24.9961 29.4927 25.085 29.4787C25.1743 29.461 25.2456 29.4469 25.2993 29.4364L25.5562 30.558C25.4702 30.5898 25.3511 30.6215 25.1978 30.6532C25.0439 30.6884 24.8496 30.7061 24.6143 30.7061C24.2573 30.7061 23.9077 30.6303 23.5654 30.4786C23.2266 30.327 22.9448 30.0959 22.7202 29.7856C22.499 29.4751 22.3882 29.0836 22.3882 28.611L22.3882 20.5266ZM30.5566 30.7696C29.8145 30.7696 29.1636 30.595 28.6035 30.2458C28.0469 29.8966 27.6118 29.4082 27.2979 28.7802C26.9873 28.1524 26.832 27.4188 26.832 26.5793C26.832 25.7327 26.9873 24.9939 27.2979 24.3625C27.6118 23.7311 28.0469 23.2408 28.6035 22.8917C29.1636 22.5424 29.8145 22.3679 30.5566 22.3679C31.2983 22.3679 31.9478 22.5424 32.5044 22.8917C33.0645 23.2408 33.4995 23.7311 33.8101 24.3625C34.124 24.9939 34.2808 25.7327 34.2808 26.5793C34.2808 27.4188 34.124 28.1524 33.8101 28.7802C33.4995 29.4082 33.0645 29.8966 32.5044 30.2458C31.9478 30.595 31.2983 30.7696 30.5566 30.7696ZM30.5566 29.6479C31.1201 29.6479 31.584 29.5051 31.9478 29.2194C32.3115 28.9337 32.5811 28.558 32.7559 28.0925C32.9307 27.6269 33.0181 27.1225 33.0181 26.5793C33.0181 26.0361 32.9307 25.53 32.7559 25.0608C32.5811 24.5917 32.3115 24.2126 31.9478 23.9233C31.584 23.6341 31.1201 23.4896 30.5566 23.4896C29.9932 23.4896 29.5293 23.6341 29.165 23.9233C28.8013 24.2126 28.5322 24.5917 28.3574 25.0608C28.1826 25.53 28.0952 26.0361 28.0952 26.5793C28.0952 27.1225 28.1826 27.6269 28.3574 28.0925C28.5322 28.558 28.8013 28.9337 29.165 29.2194C29.5293 29.5051 29.9932 29.6479 30.5566 29.6479ZM39.312 30.7696C38.6274 30.7696 38.0225 30.5985 37.498 30.2564C36.9736 29.9107 36.5635 29.424 36.2676 28.7962C35.9712 28.1648 35.8232 27.4188 35.8232 26.5581C35.8232 25.7045 35.9712 24.9638 36.2676 24.336C36.5635 23.7083 36.9756 23.2232 37.5034 22.8811C38.0312 22.5389 38.6416 22.3679 39.3335 22.3679C39.8687 22.3679 40.2915 22.456 40.6016 22.6324C40.9155 22.8052 41.1548 23.0027 41.3188 23.2249C41.4863 23.4436 41.6167 23.6235 41.7095 23.7646L41.8164 23.7646L41.8164 19.7649L43.0791 19.7649L43.0791 30.6003L41.8594 30.6003L41.8594 29.3517L41.7095 29.3517C41.6167 29.4998 41.4849 29.6868 41.3135 29.9125C41.1421 30.1346 40.8979 30.334 40.5806 30.5103C40.2627 30.6831 39.8403 30.7696 39.312 30.7696ZM39.4834 29.6479C39.9902 29.6479 40.418 29.5175 40.7676 29.2564C41.1172 28.9919 41.3833 28.6269 41.5649 28.1613C41.7471 27.6922 41.8379 27.1508 41.8379 26.537C41.8379 25.9303 41.7485 25.3994 41.5703 24.9445C41.3921 24.4859 41.1279 24.1296 40.7783 23.8758C40.4287 23.6183 39.9971 23.4896 39.4834 23.4896C38.9482 23.4896 38.5024 23.6252 38.1455 23.8969C37.7925 24.1649 37.5269 24.53 37.3481 24.992C37.1738 25.4506 37.0859 25.9656 37.0859 26.537C37.0859 27.1154 37.1753 27.6411 37.354 28.1137C37.5356 28.5828 37.8032 28.9566 38.1562 29.2352C38.5132 29.5104 38.9556 29.6479 39.4834 29.6479ZM45.5674 30.6003L45.5674 22.4737L46.8306 22.4737L46.8306 30.6003L45.5674 30.6003ZM46.2095 21.1193C45.9634 21.1193 45.7515 21.0363 45.5728 20.8706C45.3979 20.7047 45.3105 20.5056 45.3105 20.2727C45.3105 20.0399 45.3979 19.8406 45.5728 19.6749C45.7515 19.5091 45.9634 19.4262 46.2095 19.4262C46.4561 19.4262 46.6665 19.5091 46.8413 19.6749C47.0195 19.8406 47.1084 20.0399 47.1084 20.2727C47.1084 20.5056 47.0195 20.7047 46.8413 20.8706C46.6665 21.0363 46.4561 21.1193 46.2095 21.1193ZM51.562 30.7907C51.041 30.7907 50.5684 30.6938 50.144 30.4998C49.7197 30.3022 49.3823 30.0184 49.1328 29.6479C48.8828 29.274 48.7578 28.8226 48.7578 28.2935C48.7578 27.828 48.8511 27.4506 49.0361 27.1613C49.2217 26.8685 49.4697 26.6393 49.7803 26.4734C50.0903 26.3077 50.4331 26.1843 50.8076 26.1032C51.1855 26.0185 51.5654 25.9515 51.9473 25.9021C52.4468 25.8386 52.8516 25.791 53.1621 25.7592C53.4761 25.7239 53.7041 25.6658 53.8467 25.5847C53.9932 25.5035 54.0664 25.3624 54.0664 25.1614L54.0664 25.119C54.0664 24.597 53.9219 24.1914 53.6328 23.9022C53.3477 23.613 52.9141 23.4684 52.3325 23.4684C51.7295 23.4684 51.2568 23.5989 50.9146 23.8599C50.5723 24.1209 50.3315 24.3995 50.1924 24.6958L48.9937 24.2725C49.2075 23.7787 49.4932 23.3943 49.8496 23.1192C50.21 22.8405 50.6025 22.6465 51.0269 22.5372C51.4551 22.4243 51.876 22.3679 52.2896 22.3679C52.5537 22.3679 52.8569 22.3997 53.1992 22.4631C53.5454 22.523 53.8789 22.6482 54.2002 22.8387C54.5249 23.0292 54.7939 23.3166 55.0083 23.7011C55.2222 24.0856 55.3291 24.6006 55.3291 25.246L55.3291 30.6003L54.0664 30.6003L54.0664 29.4998L54.002 29.4998C53.9165 29.6762 53.7739 29.8649 53.5742 30.0659C53.374 30.2671 53.1084 30.438 52.7769 30.5791C52.4448 30.7202 52.04 30.7907 51.562 30.7907ZM51.7549 29.6691C52.2539 29.6691 52.6753 29.5721 53.0176 29.3782C53.3638 29.1841 53.624 28.9337 53.7988 28.6269C53.9771 28.32 54.0664 27.9972 54.0664 27.6586L54.0664 26.5158C54.0127 26.5793 53.895 26.6375 53.7134 26.6904C53.5347 26.7398 53.3276 26.7839 53.0923 26.8226C52.8604 26.8579 52.6338 26.8897 52.4131 26.9178C52.1953 26.9427 52.0186 26.9637 51.8833 26.9814C51.5547 27.0238 51.248 27.0926 50.9629 27.1878C50.6812 27.2795 50.4526 27.4188 50.2778 27.6057C50.1064 27.7891 50.021 28.0395 50.021 28.357C50.021 28.7909 50.1831 29.1189 50.5078 29.3411C50.8359 29.5598 51.2515 29.6691 51.7549 29.6691ZM60.9517 33.817C60.3418 33.817 59.8174 33.7395 59.3784 33.5843C58.9399 33.4326 58.5742 33.2315 58.2817 32.9811C57.9927 32.7343 57.7627 32.4698 57.5913 32.1875L58.5972 31.4892C58.7114 31.6373 58.856 31.8066 59.0308 31.9971C59.2056 32.191 59.4443 32.3586 59.7476 32.4996C60.0547 32.6443 60.4561 32.7166 60.9517 32.7166C61.6152 32.7166 62.1631 32.5579 62.5947 32.2404C63.0264 31.923 63.2422 31.4257 63.2422 30.7484L63.2422 29.0977L63.1348 29.0977C63.042 29.2459 62.9102 29.4293 62.7388 29.6479C62.5713 29.8631 62.3286 30.0553 62.0112 30.2246C61.6973 30.3904 61.2729 30.4733 60.7378 30.4733C60.0742 30.4733 59.4785 30.3181 58.9507 30.0078C58.4263 29.6973 58.0103 29.2459 57.7036 28.6533C57.4004 28.0608 57.249 27.3411 57.249 26.4947C57.249 25.6623 57.397 24.9374 57.6929 24.3201C57.9893 23.6994 58.4009 23.2197 58.9292 22.8811C59.457 22.5389 60.0669 22.3679 60.7593 22.3679C61.2944 22.3679 61.7188 22.456 62.0327 22.6324C62.3501 22.8052 62.5928 23.0027 62.7603 23.2249C62.9316 23.4436 63.0635 23.6235 63.1562 23.7646L63.2847 23.7646L63.2847 22.4737L64.5049 22.4737L64.5049 30.833C64.5049 31.5315 64.3442 32.0993 64.0234 32.5367C63.7056 32.9776 63.2778 33.3003 62.7388 33.5049C62.2041 33.713 61.6079 33.817 60.9517 33.817ZM60.9092 29.3517C61.4155 29.3517 61.8438 29.2371 62.1934 29.0077C62.543 28.7785 62.8086 28.4487 62.9902 28.0185C63.1724 27.5881 63.2632 27.0731 63.2632 26.4734C63.2632 25.888 63.1743 25.3713 62.9956 24.9233C62.8174 24.4754 62.5537 24.1243 62.2041 23.8704C61.8545 23.6164 61.4229 23.4896 60.9092 23.4896C60.374 23.4896 59.9277 23.6235 59.5713 23.8916C59.2183 24.1597 58.9521 24.5194 58.7739 24.9709C58.5991 25.4224 58.5117 25.9232 58.5117 26.4734C58.5117 27.0379 58.6011 27.537 58.7793 27.9708C58.9609 28.4012 59.2285 28.7397 59.582 28.9866C59.9385 29.23 60.3809 29.3517 60.9092 29.3517ZM68.0791 25.7116L68.0791 30.6003L66.8164 30.6003L66.8164 22.4737L68.0366 22.4737L68.0366 23.7434L68.1436 23.7434C68.3359 23.3308 68.6284 22.9993 69.0215 22.7487C69.4136 22.4949 69.9199 22.3679 70.541 22.3679C71.0972 22.3679 71.584 22.4807 72.0015 22.7064C72.4189 22.9287 72.7437 23.2673 72.9751 23.7223C73.2075 24.1737 73.3232 24.7452 73.3232 25.4365L73.3232 30.6003L72.0605 30.6003L72.0605 25.5212C72.0605 24.8827 71.8931 24.3854 71.5576 24.0291C71.2222 23.6694 70.7622 23.4896 70.1768 23.4896C69.7734 23.4896 69.4136 23.576 69.0957 23.7488C68.7822 23.9216 68.5342 24.1737 68.3521 24.5053C68.1704 24.8369 68.0791 25.239 68.0791 25.7116ZM78.9697 30.7696C78.228 30.7696 77.5767 30.595 77.0171 30.2458C76.4604 29.8966 76.0254 29.4082 75.7109 28.7802C75.4009 28.1524 75.2456 27.4188 75.2456 26.5793C75.2456 25.7327 75.4009 24.9939 75.7109 24.3625C76.0254 23.7311 76.4604 23.2408 77.0171 22.8917C77.5767 22.5424 78.228 22.3679 78.9697 22.3679C79.7119 22.3679 80.3608 22.5424 80.918 22.8917C81.478 23.2408 81.9131 23.7311 82.2236 24.3625C82.5371 24.9939 82.6943 25.7327 82.6943 26.5793C82.6943 27.4188 82.5371 28.1524 82.2236 28.7802C81.9131 29.4082 81.478 29.8966 80.918 30.2458C80.3608 30.595 79.7119 30.7696 78.9697 30.7696ZM78.9697 29.6479C79.5337 29.6479 79.9976 29.5051 80.3608 29.2194C80.7251 28.9337 80.9941 28.558 81.1694 28.0925C81.3442 27.6269 81.4316 27.1225 81.4316 26.5793C81.4316 26.0361 81.3442 25.53 81.1694 25.0608C80.9941 24.5917 80.7251 24.2126 80.3608 23.9233C79.9976 23.6341 79.5337 23.4896 78.9697 23.4896C78.4062 23.4896 77.9424 23.6341 77.5791 23.9233C77.2148 24.2126 76.9453 24.5917 76.7705 25.0608C76.5957 25.53 76.5083 26.0361 76.5083 26.5793C76.5083 27.1225 76.5957 27.6269 76.7705 28.0925C76.9453 28.558 77.2148 28.9337 77.5791 29.2194C77.9424 29.5051 78.4062 29.6479 78.9697 29.6479ZM84.3867 30.6003L84.3867 29.6479L89.0532 23.7223L89.0532 23.6376L84.5361 23.6376L84.5361 22.4737L90.6792 22.4737L90.6792 23.4684L86.1416 29.3517L86.1416 29.4364L90.8296 29.4364L90.8296 30.6003L84.3867 30.6003ZM96.1777 30.7484C95.5498 30.7484 94.9844 30.6249 94.4814 30.3781C93.9785 30.1312 93.5752 29.7925 93.272 29.3622C92.9688 28.9319 92.8027 28.4417 92.7744 27.8914L94.0586 27.8914C94.1084 28.3817 94.333 28.7873 94.7329 29.1084C95.1357 29.4257 95.6177 29.5844 96.1777 29.5844C96.6274 29.5844 97.0264 29.4804 97.376 29.2723C97.7295 29.0642 98.0059 28.7785 98.2056 28.4152C98.4092 28.0483 98.5103 27.6339 98.5103 27.1719C98.5103 26.6992 98.4053 26.2777 98.1948 25.9074C97.9883 25.5336 97.7026 25.239 97.3384 25.0238C96.9751 24.8087 96.5591 24.6993 96.0918 24.6958C95.7568 24.6922 95.4126 24.7435 95.0591 24.8492C94.7061 24.9514 94.415 25.0839 94.187 25.246L92.9453 25.0979L93.6089 19.7649L99.3027 19.7649L99.3027 20.9288L94.7217 20.9288L94.3364 24.1243L94.4009 24.1243C94.6255 23.948 94.9077 23.8016 95.2466 23.6853C95.5854 23.5689 95.9385 23.5107 96.3062 23.5107C96.9766 23.5107 97.5742 23.6694 98.0981 23.9868C98.6265 24.3008 99.0405 24.7311 99.3398 25.2778C99.6431 25.8246 99.7949 26.4488 99.7949 27.1508C99.7949 27.8421 99.6377 28.4594 99.3242 29.0025C99.0137 29.5421 98.5854 29.969 98.0396 30.2828C97.4937 30.5932 96.873 30.7484 96.1777 30.7484ZM101.92 30.6003L101.92 29.6479L105.538 25.7327C105.962 25.2742 106.312 24.8757 106.587 24.5371C106.861 24.195 107.064 23.8739 107.197 23.5741C107.332 23.2708 107.4 22.9534 107.4 22.6219C107.4 22.2409 107.308 21.9111 107.122 21.6325C106.94 21.3538 106.69 21.1386 106.373 20.987C106.055 20.8353 105.699 20.7595 105.302 20.7595C104.881 20.7595 104.514 20.8459 104.2 21.0188C103.89 21.188 103.649 21.4261 103.478 21.733C103.31 22.0398 103.226 22.3997 103.226 22.8122L101.963 22.8122C101.963 22.1774 102.112 21.6201 102.407 21.1403C102.703 20.6607 103.107 20.2868 103.617 20.0187C104.13 19.7506 104.707 19.6167 105.345 19.6167C105.988 19.6167 106.556 19.7506 107.052 20.0187C107.548 20.2868 107.937 20.6483 108.219 21.1033C108.5 21.5583 108.641 22.0645 108.641 22.6219C108.641 23.0204 108.568 23.4102 108.422 23.791C108.279 24.1685 108.03 24.59 107.673 25.0555C107.32 25.5176 106.829 26.0819 106.201 26.7486L103.74 29.3517L103.74 29.4364L108.834 29.4364L108.834 30.6003L101.92 30.6003Z" fill="#FFFFFF" fill-opacity="1.000000" fill-rule="nonzero"/>
			</g>
		</g>
	</g>
</svg>
